/* XPM */
static char * arch_linux_icon_xpm[] = {
"24 24 97 2",
"  	c None",
". 	c #000000",
"+ 	c #031C2A",
"@ 	c #03293D",
"# 	c #1070A0",
"$ 	c #011A28",
"% 	c #0C5B83",
"& 	c #168FCC",
"* 	c #074361",
"= 	c #032232",
"- 	c #1380B6",
"; 	c #1793D1",
"> 	c #1173A4",
", 	c #094F72",
"' 	c #1792CF",
") 	c #063953",
"! 	c #085073",
"~ 	c #168ECA",
"{ 	c #1071A2",
"] 	c #021E2E",
"^ 	c #01121D",
"/ 	c #0A5378",
"( 	c #1690CD",
"_ 	c #063A55",
": 	c #1073A4",
"< 	c #1073A5",
"[ 	c #063E59",
"} 	c #0E6490",
"| 	c #1792D0",
"1 	c #1072A3",
"2 	c #07405C",
"3 	c #1691CE",
"4 	c #168DC8",
"5 	c #063C58",
"6 	c #1175A8",
"7 	c #074260",
"8 	c #063954",
"9 	c #011725",
"0 	c #1179AC",
"a 	c #1485BD",
"b 	c #0A567C",
"c 	c #063852",
"d 	c #0F6A98",
"e 	c #106F9F",
"f 	c #094D6F",
"g 	c #1690CC",
"h 	c #07405D",
"i 	c #0D6490",
"j 	c #168FCB",
"k 	c #127DB2",
"l 	c #1172A3",
"m 	c #01111C",
"n 	c #03283B",
"o 	c #1587C0",
"p 	c #1074A6",
"q 	c #0A557A",
"r 	c #1691CF",
"s 	c #0A567D",
"t 	c #0F6F9F",
"u 	c #1176A9",
"v 	c #042A3E",
"w 	c #022031",
"x 	c #1483BA",
"y 	c #05344B",
"z 	c #0B5A81",
"A 	c #1791CF",
"B 	c #032B40",
"C 	c #00050B",
"D 	c #0C5E87",
"E 	c #1587C1",
"F 	c #053147",
"G 	c #0A5175",
"H 	c #1692CF",
"I 	c #1484BC",
"J 	c #095378",
"K 	c #032A3E",
"L 	c #1488C1",
"M 	c #1279AD",
"N 	c #094C6E",
"O 	c #021E2F",
"P 	c #00070E",
"Q 	c #043047",
"R 	c #0D618C",
"S 	c #1485BE",
"T 	c #0F6B99",
"U 	c #0D648F",
"V 	c #011521",
"W 	c #022233",
"X 	c #0B5479",
"Y 	c #137EB4",
"Z 	c #084C6E",
"` 	c #042435",
" .	c #042F45",
"..	c #032233",
"+.	c #042C40",
"@.	c #000204",
"#.	c #00080E",
"                                                ",
"                        .                       ",
"                        +                       ",
"                      @ # $                     ",
"                      % & *                     ",
"                    = - ; >                     ",
"                    , ' ; & )                   ",
"                    ! ~ ; ; {                   ",
"                  ] ^ / & ; ( _                 ",
"                  : < [ } | ; 1                 ",
"                2 3 ; ( 4 ; ; ~ 5               ",
"                6 ; ; ; ; ; ; ; #               ",
"              7 3 ; ; | ' ; ; ; ~ 8             ",
"            9 0 ; ; a b c d ( ; ; e             ",
"            f 3 ; g h       i | ; j c           ",
"          ] k ; ; l m       n o ; ; p           ",
"          q r ; | s           t ( u > v         ",
"        w x ; ; ' y           z A 1 B C         ",
"        D | ; ' E F           G 3 H I J         ",
"      K L r M N O P           ^ Q R S & T       ",
"      U 1 * V                       W X Y Z     ",
"    `  .                                ..+.@.  ",
"    #.                                      .   ",
"                                                "};
