/* XPM */
static char * hdd_xpm[] = {
"18 20 2 1",
" 	c None",
".	c #707880",
" ................ ",
"..              ..",
". ..    ..    .. .",
". .. ...  ... .. .",
".   .        .   .",
".  .          .  .",
".  .          .  .",
". .            . .",
". .     ..     . .",
". .    .  .    . .",
". .    .  .    . .",
". .     ..     . .",
". .            . .",
".  .          .  .",
".  . ...      .  .",
".  ....      .   .",
"........  ... .. .",
".....   ..    .. .",
"...             ..",
" ................ "};
