/* XPM */
static char * test_xpm[] = {
"44 20 2 1",
" 	c None",
".	c #FBF1C7",
"                                            ",
"                                            ",
"                                            ",
"...  ........  ..............  ........  ...",
"...  ........  ..............  ........  ...",
"....  ........  ............  ........  ....",
"....  ........  ............  ........  ....",
".....  ........  ..........  ........  .....",
".....  ........  ..........  ........  .....",
"......  ........  ........            ......",
"......  ........  ........            ......",
".......  ........  ......  ........  .......",
".......  ........  ......  ........  .......",
"........  ........  ....  ........  ........",
"........  ........  ....  ........  ........",
".........  ........  ..  ........  .........",
".........  ........  ..  ........  .........",
"                                            ",
"                                            ",
"                                            "};
